<svg width="2907" height="487" viewBox="0 0 2907 487" fill="none" xmlns="http://www.w3.org/2000/svg">
<path d="M198.655 486.377C164.635 486.377 133.845 479.703 106.285 466.353C79.155 453.004 57.1929 434.917 40.3983 412.094C24.0343 388.84 14.7757 363.217 12.6226 335.226L101.117 322.307H103.701C105.423 337.81 110.591 351.805 119.204 364.294C127.816 376.782 139.013 386.686 152.793 394.007C167.004 401.328 182.291 404.988 198.655 404.988C221.909 404.988 240.642 400.036 254.852 390.131C269.063 379.796 276.169 366.447 276.169 350.083C276.169 335.011 271.216 322.953 261.312 313.91C251.407 304.867 238.704 298.192 223.201 293.886L150.855 273.861C128.893 267.402 108.653 259.004 90.1361 248.669C72.0496 238.334 57.6235 224.554 46.8577 207.329C36.092 189.673 30.7091 167.711 30.7091 141.442C30.7091 114.743 37.8145 91.4891 52.0253 71.6801C66.6667 51.4405 86.2604 35.7225 110.806 24.5261C135.783 13.3297 163.343 7.7315 193.487 7.7315C223.632 7.7315 251.623 13.1144 277.46 23.8801C303.298 34.2153 324.399 49.072 340.763 68.4504C357.127 87.3981 366.17 109.791 367.893 135.629L280.044 149.194H277.46C274.446 132.83 265.618 118.834 250.977 107.207C236.335 95.1495 217.172 89.1207 193.487 89.1207C172.387 89.1207 155.807 93.2117 143.75 101.394C132.123 109.576 126.309 121.203 126.309 136.275C126.309 149.194 130.615 159.529 139.228 167.28C148.271 174.601 160.114 180.414 174.755 184.721L248.393 205.391C270.786 211.42 291.241 219.602 309.758 229.937C328.275 240.272 343.132 254.483 354.328 272.569C365.955 290.225 371.769 313.695 371.769 342.977C371.769 371.399 364.233 396.376 349.16 417.907C334.519 439.439 314.279 456.233 288.441 468.291C262.604 480.349 232.675 486.377 198.655 486.377ZM511.025 486.377C488.202 486.377 467.747 482.071 449.661 473.459C432.005 464.846 418.009 453.219 407.674 438.577C397.77 423.505 392.817 406.711 392.817 388.194C392.817 358.049 403.368 334.149 424.469 316.494C445.57 298.838 474.852 287.426 512.317 282.259L602.75 269.986V257.713C602.75 241.349 597.152 228.43 585.955 218.956C575.189 209.482 561.409 204.745 544.615 204.745C524.806 204.745 509.088 209.697 497.461 219.602C486.264 229.506 478.943 242.21 475.498 257.713L396.047 238.334C401.215 220.678 410.043 204.314 422.531 189.242C435.019 174.17 451.383 161.897 471.623 152.423C491.862 142.949 516.193 138.213 544.615 138.213C573.897 138.213 599.305 143.38 620.836 153.715C642.798 164.05 659.808 178.907 671.866 198.286C683.924 217.233 689.952 239.841 689.952 266.11V479.918H602.104V443.745C590.046 459.678 575.835 470.875 559.471 477.334C543.107 483.363 526.959 486.377 511.025 486.377ZM602.104 366.877V329.413L527.174 342.331C497.03 348.36 481.958 362.356 481.958 384.318C481.958 394.653 486.049 403.696 494.231 411.448C502.413 418.768 513.394 422.429 527.174 422.429C546.122 422.429 561.84 416.831 574.328 405.634C587.247 394.438 596.506 381.519 602.104 366.877ZM739.821 479.918V144.672H827.67V184.721C837.575 170.94 850.493 159.744 866.427 151.131C882.36 142.519 900.877 138.213 921.978 138.213C945.232 138.213 965.257 143.165 982.051 153.069C999.276 162.974 1012.41 176.754 1021.45 194.41C1033.08 174.17 1048.37 159.744 1067.32 151.131C1086.26 142.519 1105.21 138.213 1124.16 138.213C1146.98 138.213 1167.22 143.165 1184.88 153.069C1202.53 162.543 1216.53 175.893 1226.86 193.118C1237.2 209.913 1242.37 229.722 1242.37 252.545V479.918H1154.52V279.675C1154.52 261.588 1151.72 247.808 1146.12 238.334C1140.95 228.86 1134.28 222.401 1126.1 218.956C1118.35 215.08 1110.16 213.142 1101.55 213.142C1085.62 213.142 1071.19 219.602 1058.27 232.521C1045.78 245.44 1038.03 262.665 1035.02 284.196V479.918H947.17V279.675C947.17 261.588 944.371 247.808 938.773 238.334C933.605 228.86 926.93 222.401 918.748 218.956C910.997 215.08 902.815 213.142 894.203 213.142C876.977 213.142 862.336 220.248 850.278 234.459C838.221 248.669 830.684 265.464 827.67 284.842V479.918H739.821ZM1476.83 486.377C1455.73 486.377 1436.57 482.071 1419.34 473.459C1402.12 464.415 1389.2 453.865 1380.58 441.807V479.918H1292.74V7.7315H1380.58V182.137C1389.2 170.079 1402.12 159.744 1419.34 151.131C1437 142.519 1456.38 138.213 1477.48 138.213C1508.05 138.213 1534.97 145.749 1558.22 160.821C1581.9 175.462 1600.42 195.917 1613.77 222.186C1627.12 248.454 1633.8 278.383 1633.8 311.972C1633.8 345.561 1627.12 375.49 1613.77 401.759C1600.42 428.027 1581.9 448.697 1558.22 463.769C1534.54 478.841 1507.41 486.377 1476.83 486.377ZM1459.39 410.802C1484.37 410.802 1504.82 401.543 1520.75 383.026C1536.69 364.078 1544.65 339.963 1544.65 310.68C1544.65 281.828 1536.69 258.359 1520.75 240.272C1505.25 222.186 1485.44 213.142 1461.33 213.142C1439.37 213.142 1420.85 220.463 1405.78 235.104C1391.14 249.315 1382.74 267.832 1380.58 290.656V331.35C1382.74 354.174 1391.14 373.122 1405.78 388.194C1420.42 403.266 1438.29 410.802 1459.39 410.802ZM1774.25 486.377C1751.43 486.377 1730.98 482.071 1712.89 473.459C1695.23 464.846 1681.24 453.219 1670.9 438.577C1661 423.505 1656.05 406.711 1656.05 388.194C1656.05 358.049 1666.6 334.149 1687.7 316.494C1708.8 298.838 1738.08 287.426 1775.55 282.259L1865.98 269.986V257.713C1865.98 241.349 1860.38 228.43 1849.18 218.956C1838.42 209.482 1824.64 204.745 1807.84 204.745C1788.03 204.745 1772.32 209.697 1760.69 219.602C1749.49 229.506 1742.17 242.21 1738.73 257.713L1659.28 238.334C1664.44 220.678 1673.27 204.314 1685.76 189.242C1698.25 174.17 1714.61 161.897 1734.85 152.423C1755.09 142.949 1779.42 138.213 1807.84 138.213C1837.13 138.213 1862.53 143.38 1884.06 153.715C1906.03 164.05 1923.04 178.907 1935.09 198.286C1947.15 217.233 1953.18 239.841 1953.18 266.11V479.918H1865.33V443.745C1853.27 459.678 1839.06 470.875 1822.7 477.334C1806.34 483.363 1790.19 486.377 1774.25 486.377ZM1865.33 366.877V329.413L1790.4 342.331C1760.26 348.36 1745.19 362.356 1745.19 384.318C1745.19 394.653 1749.28 403.696 1757.46 411.448C1765.64 418.768 1776.62 422.429 1790.4 422.429C1809.35 422.429 1825.07 416.831 1837.56 405.634C1850.48 394.438 1859.73 381.519 1865.33 366.877Z" fill="black"/>
<path d="M2038.21 407.945C2047.93 407.945 2056.31 411.565 2063.36 418.422C2070.22 425.28 2073.84 433.662 2073.84 443.377C2073.84 453.283 2070.22 461.664 2063.36 468.522C2056.31 475.57 2047.93 478.999 2038.21 478.999C2028.31 478.999 2019.93 475.57 2013.07 468.522C2006.21 461.664 2002.78 453.283 2002.78 443.377C2002.78 433.662 2006.21 425.28 2013.07 418.422C2019.93 411.565 2028.31 407.945 2038.21 407.945ZM2038.21 414.041C2030.02 414.041 2023.17 416.899 2017.45 422.613C2011.74 428.328 2008.88 435.376 2008.88 443.377C2008.88 451.568 2011.74 458.426 2017.45 464.141C2023.17 469.856 2030.02 472.713 2038.21 472.713C2046.21 472.713 2053.26 469.856 2058.98 464.141C2064.69 458.426 2067.55 451.568 2067.55 443.377C2067.55 435.376 2064.69 428.328 2058.98 422.613C2053.26 416.899 2046.21 414.041 2038.21 414.041ZM2023.36 423.566H2037.45C2049.07 423.566 2054.98 427.566 2054.98 435.186C2054.98 439.758 2052.5 442.996 2047.74 444.52C2050.22 445.663 2051.93 446.996 2052.88 448.711C2053.64 450.425 2054.22 453.473 2054.41 457.664C2054.41 459.76 2054.6 461.474 2055.36 462.998H2046.21C2045.64 462.045 2045.26 460.141 2045.26 457.474C2045.07 453.664 2044.5 451.187 2043.36 450.044C2042.21 448.901 2039.93 448.33 2036.5 448.33H2032.69V462.998H2023.36V423.566ZM2032.69 441.091H2037.07C2042.79 441.091 2045.64 439.377 2045.64 435.948C2045.64 432.519 2042.79 430.805 2037.07 430.805H2032.69V441.091Z" fill="black"/>
<path d="M2151.35 477V471.717L2186.35 438.697L2358.05 0.855401H2408.9L2582.59 436.716L2618.25 471.717V477H2481.55L2480.89 471.717L2503.34 438.697L2466.36 342.94H2275.5L2239.18 439.357L2260.98 471.717L2260.31 477H2151.35ZM2291.35 300.014H2449.85L2369.28 92.6503L2291.35 300.014ZM2739.12 436.716L2768.84 471.717V477H2636.76V471.717L2666.48 436.716V41.1395L2636.76 6.13853V0.855401H2768.84V6.13853L2739.12 41.1395V436.716Z" fill="black"/>
</svg>
