<svg width="2907" height="487" viewBox="0 0 2907 487" fill="none" xmlns="http://www.w3.org/2000/svg">
<path d="M199.061 486.377C165.041 486.377 134.251 479.703 106.691 466.353C79.5608 453.004 57.5986 434.917 40.804 412.094C24.4401 388.84 15.1815 363.217 13.0283 335.226L101.523 322.307H104.107C105.829 337.81 110.997 351.805 119.609 364.294C128.222 376.782 139.418 386.686 153.199 394.007C167.409 401.328 182.697 404.988 199.061 404.988C222.315 404.988 241.047 400.036 255.258 390.131C269.469 379.796 276.574 366.447 276.574 350.083C276.574 335.011 271.622 322.953 261.718 313.91C251.813 304.867 239.109 298.192 223.607 293.886L151.261 273.861C129.299 267.402 109.059 259.004 90.5419 248.669C72.4554 238.334 58.0292 224.554 47.2635 207.329C36.4977 189.673 31.1148 167.711 31.1148 141.442C31.1148 114.743 38.2202 91.4891 52.431 71.6801C67.0725 51.4405 86.6662 35.7225 111.212 24.5261C136.189 13.3297 163.749 7.7315 193.893 7.7315C224.037 7.7315 252.028 13.1144 277.866 23.8801C303.704 34.2153 324.805 49.072 341.169 68.4504C357.533 87.3981 366.576 109.791 368.299 135.629L280.45 149.194H277.866C274.852 132.83 266.024 118.834 251.382 107.207C236.741 95.1495 217.578 89.1207 193.893 89.1207C172.792 89.1207 156.213 93.2117 144.155 101.394C132.528 109.576 126.715 121.203 126.715 136.275C126.715 149.194 131.021 159.529 139.634 167.28C148.677 174.601 160.519 180.414 175.161 184.721L248.799 205.391C271.191 211.42 291.646 219.602 310.163 229.937C328.681 240.272 343.537 254.483 354.734 272.569C366.361 290.225 372.174 313.695 372.174 342.977C372.174 371.399 364.638 396.376 349.566 417.907C334.925 439.439 314.685 456.233 288.847 468.291C263.009 480.349 233.081 486.377 199.061 486.377ZM511.431 486.377C488.608 486.377 468.153 482.071 450.066 473.459C432.41 464.846 418.415 453.219 408.08 438.577C398.175 423.505 393.223 406.711 393.223 388.194C393.223 358.049 403.773 334.149 424.874 316.494C445.975 298.838 475.258 287.426 512.723 282.259L603.155 269.986V257.713C603.155 241.349 597.557 228.43 586.361 218.956C575.595 209.482 561.815 204.745 545.02 204.745C525.211 204.745 509.493 209.697 497.866 219.602C486.67 229.506 479.349 242.21 475.904 257.713L396.453 238.334C401.62 220.678 410.448 204.314 422.937 189.242C435.425 174.17 451.789 161.897 472.028 152.423C492.268 142.949 516.599 138.213 545.02 138.213C574.303 138.213 599.71 143.38 621.242 153.715C643.204 164.05 660.214 178.907 672.272 198.286C684.329 217.233 690.358 239.841 690.358 266.11V479.918H602.51V443.745C590.452 459.678 576.241 470.875 559.877 477.334C543.513 483.363 527.364 486.377 511.431 486.377ZM602.51 366.877V329.413L527.58 342.331C497.436 348.36 482.364 362.356 482.364 384.318C482.364 394.653 486.455 403.696 494.637 411.448C502.819 418.768 513.8 422.429 527.58 422.429C546.528 422.429 562.246 416.831 574.734 405.634C587.653 394.438 596.911 381.519 602.51 366.877ZM740.227 479.918V144.672H828.076V184.721C837.98 170.94 850.899 159.744 866.833 151.131C882.766 142.519 901.283 138.213 922.384 138.213C945.638 138.213 965.662 143.165 982.457 153.069C999.682 162.974 1012.82 176.754 1021.86 194.41C1033.49 174.17 1048.77 159.744 1067.72 151.131C1086.67 142.519 1105.62 138.213 1124.57 138.213C1147.39 138.213 1167.63 143.165 1185.28 153.069C1202.94 162.543 1216.94 175.893 1227.27 193.118C1237.61 209.913 1242.77 229.722 1242.77 252.545V479.918H1154.92V279.675C1154.92 261.588 1152.13 247.808 1146.53 238.334C1141.36 228.86 1134.68 222.401 1126.5 218.956C1118.75 215.08 1110.57 213.142 1101.96 213.142C1086.02 213.142 1071.6 219.602 1058.68 232.521C1046.19 245.44 1038.44 262.665 1035.42 284.196V479.918H947.576V279.675C947.576 261.588 944.777 247.808 939.179 238.334C934.011 228.86 927.336 222.401 919.154 218.956C911.403 215.08 903.221 213.142 894.608 213.142C877.383 213.142 862.742 220.248 850.684 234.459C838.626 248.669 831.09 265.464 828.076 284.842V479.918H740.227ZM1477.24 486.377C1456.14 486.377 1436.97 482.071 1419.75 473.459C1402.52 464.415 1389.6 453.865 1380.99 441.807V479.918H1293.14V7.7315H1380.99V182.137C1389.6 170.079 1402.52 159.744 1419.75 151.131C1437.4 142.519 1456.78 138.213 1477.88 138.213C1508.46 138.213 1535.37 145.749 1558.63 160.821C1582.31 175.462 1600.83 195.917 1614.18 222.186C1627.53 248.454 1634.2 278.383 1634.2 311.972C1634.2 345.561 1627.53 375.49 1614.18 401.759C1600.83 428.027 1582.31 448.697 1558.63 463.769C1534.94 478.841 1507.81 486.377 1477.24 486.377ZM1459.8 410.802C1484.77 410.802 1505.23 401.543 1521.16 383.026C1537.09 364.078 1545.06 339.963 1545.06 310.68C1545.06 281.828 1537.09 258.359 1521.16 240.272C1505.66 222.186 1485.85 213.142 1461.73 213.142C1439.77 213.142 1421.25 220.463 1406.18 235.104C1391.54 249.315 1383.14 267.832 1380.99 290.656V331.35C1383.14 354.174 1391.54 373.122 1406.18 388.194C1420.82 403.266 1438.69 410.802 1459.8 410.802ZM1774.66 486.377C1751.84 486.377 1731.38 482.071 1713.29 473.459C1695.64 464.846 1681.64 453.219 1671.31 438.577C1661.4 423.505 1656.45 406.711 1656.45 388.194C1656.45 358.049 1667 334.149 1688.1 316.494C1709.2 298.838 1738.49 287.426 1775.95 282.259L1866.38 269.986V257.713C1866.38 241.349 1860.79 228.43 1849.59 218.956C1838.82 209.482 1825.04 204.745 1808.25 204.745C1788.44 204.745 1772.72 209.697 1761.09 219.602C1749.9 229.506 1742.58 242.21 1739.13 257.713L1659.68 238.334C1664.85 220.678 1673.68 204.314 1686.16 189.242C1698.65 174.17 1715.02 161.897 1735.26 152.423C1755.5 142.949 1779.83 138.213 1808.25 138.213C1837.53 138.213 1862.94 143.38 1884.47 153.715C1906.43 164.05 1923.44 178.907 1935.5 198.286C1947.56 217.233 1953.59 239.841 1953.59 266.11V479.918H1865.74V443.745C1853.68 459.678 1839.47 470.875 1823.11 477.334C1806.74 483.363 1790.59 486.377 1774.66 486.377ZM1865.74 366.877V329.413L1790.81 342.331C1760.66 348.36 1745.59 362.356 1745.59 384.318C1745.59 394.653 1749.68 403.696 1757.86 411.448C1766.05 418.768 1777.03 422.429 1790.81 422.429C1809.76 422.429 1825.47 416.831 1837.96 405.634C1850.88 394.438 1860.14 381.519 1865.74 366.877Z" fill="white"/>
<path d="M2038.62 407.945C2048.33 407.945 2056.72 411.565 2063.76 418.422C2070.62 425.28 2074.24 433.662 2074.24 443.377C2074.24 453.283 2070.62 461.664 2063.76 468.522C2056.72 475.57 2048.33 478.999 2038.62 478.999C2028.71 478.999 2020.33 475.57 2013.47 468.522C2006.62 461.664 2003.19 453.283 2003.19 443.377C2003.19 433.662 2006.62 425.28 2013.47 418.422C2020.33 411.565 2028.71 407.945 2038.62 407.945ZM2038.62 414.041C2030.43 414.041 2023.57 416.899 2017.86 422.613C2012.14 428.328 2009.28 435.376 2009.28 443.377C2009.28 451.568 2012.14 458.426 2017.86 464.141C2023.57 469.856 2030.43 472.713 2038.62 472.713C2046.62 472.713 2053.67 469.856 2059.38 464.141C2065.1 458.426 2067.96 451.568 2067.96 443.377C2067.96 435.376 2065.1 428.328 2059.38 422.613C2053.67 416.899 2046.62 414.041 2038.62 414.041ZM2023.76 423.566H2037.86C2049.48 423.566 2055.38 427.566 2055.38 435.186C2055.38 439.758 2052.91 442.996 2048.14 444.52C2050.62 445.663 2052.33 446.996 2053.29 448.711C2054.05 450.425 2054.62 453.473 2054.81 457.664C2054.81 459.76 2055 461.474 2055.76 462.998H2046.62C2046.05 462.045 2045.67 460.141 2045.67 457.474C2045.48 453.664 2044.91 451.187 2043.76 450.044C2042.62 448.901 2040.33 448.33 2036.9 448.33H2033.09V462.998H2023.76V423.566ZM2033.09 441.091H2037.48C2043.19 441.091 2046.05 439.377 2046.05 435.948C2046.05 432.519 2043.19 430.805 2037.48 430.805H2033.09V441.091Z" fill="white"/>
<path d="M2151.76 477V471.717L2186.76 438.697L2358.46 0.855401H2409.31L2582.99 436.716L2618.65 471.717V477H2481.95L2481.29 471.717L2503.75 438.697L2466.76 342.94H2275.91L2239.59 439.357L2261.38 471.717L2260.72 477H2151.76ZM2291.76 300.014H2450.25L2369.69 92.6503L2291.76 300.014ZM2739.53 436.716L2769.25 471.717V477H2637.17V471.717L2666.88 436.716V41.1395L2637.17 6.13853V0.855401H2769.25V6.13853L2739.53 41.1395V436.716Z" fill="white"/>
</svg>
